<?xml version="1.0" encoding="UTF-8"?>
<svg id="Layer_1" data-name="Layer 1" xmlns="http://www.w3.org/2000/svg" viewBox="0 0 1080 1080">
  <defs>
    <style>
      .cls-1 {
        fill: #fff;
      }
    </style>
  </defs>
  <path class="cls-1" d="M882.83,517.14l-.04,69.07-24.97-.08-.06-69.01-12.58-.41.13-22.88,12.43-.2c.02-5.28.19-10.12,1.49-15.13,3.71-14.29,15.27-24.23,30.03-25.84l20.49-.27-.07,23.82-16.07.28c-8.3.14-11.63,8.26-10.72,17.09l23.77.18.03,23.1-23.86.28Z"/>
  <rect class="cls-1" x="810.26" y="493.51" width="24.96" height="92.8"/>
  <circle class="cls-1" cx="822.73" cy="467.63" r="15.93"/>
  <path class="cls-1" d="M978.69,630.03c-12.45,6.47-27.15,6.66-39.59,1.22-13.63-5.96-22.36-18.28-23.67-33.21l25.1-.75c1.93,9.75,10.3,15.49,20.17,13.74,7.72-.78,13.54-7.24,14.9-14.94l.62-14.42c-11.84,9.1-30.55,7.91-42.49-.2-11.73-7.96-17.55-20.65-18.35-34.76v-52.99s25.02.03,25.02.03l.11,52.33c.73,5.79,2.51,11.37,7.47,14.69,5.89,3.95,14.19,3.98,20.22.1,4.64-2.99,7.7-8.48,7.75-14.22l.45-53,24.98.11-.03,98.92c-1.08,15.75-8.33,29.91-22.66,37.36Z"/>
  <path class="cls-1" d="M771.52,533.51c-.92-10.42-8.4-17.7-17.97-17.71-9.91,0-17.63,7.07-18.47,17.48l-.14,52.87-24.93.13v-92.56c3.78.03,7.64-1,10.52.3,2.75,1.74,3.91,5.52,6.3,8.17,18.51-16.03,49.27-12.95,62.6,7.7,4.72,7.31,6.96,15.76,6.95,24.58l-.06,51.79-24.73-.09-.06-52.66Z"/>
  <path class="cls-1" d="M695.51,493.85l-10.43-.3-6.96,9.33c-8.38-7.45-18.32-11.19-29.26-11.32-30.1-.34-50.24,24.9-46.73,55.21,1.42,12.29,7.07,22.91,16.48,30.97,16.29,13.96,43.47,14.03,59-1.78l7.17,10.34c4.04-.21,7.3.38,10.77-.47l-.04-92ZM669.22,549.28c-2.67,6.94-8.33,11.8-14.15,13.43-7.49,2.09-15.13.83-20.52-4.17-8.23-7.55-10.07-19.27-5.97-29.43,2.94-7.3,9.5-12.23,16.35-13.33,8.48-1.33,16.2,1.76,21.22,8.55,5.18,7.07,6.3,16.54,3.07,24.94Z"/>
  <rect class="cls-1" x="565.91" y="452.13" width="25.02" height="134.18"/>
  <path class="cls-1" d="M551.15,520.06c-7.51-18.85-26.06-29.91-46.18-28.43-11.06.8-20.8,4.53-28.92,12.08-10.26,9.54-16.1,22.64-16.12,36.92l-.04,87.14,24.96-.15.04-46.79c23.35,15.02,53.82,5.58,65.35-19.44,5.97-12.95,6.22-27.97.91-41.32ZM520.42,559.28c-7.83,6.07-19.08,5.9-26.46-.19-10.92-8.99-12.12-25.41-3.05-36.07,8.63-10.15,24.77-10.26,33.13.04,8.89,10.98,7.79,27.35-3.62,36.22Z"/>
  <g>
    <path class="cls-1" d="M349.87,523.29c-.64-.64-1.43-1.34-2.37-2.1-.04-.04-.09-.09-.14-.11-10.35-8.74-23.22-14.29-37.17-15.31-.79-.06-1.57-.1-2.37-.13-2.01-.07-3.98-.06-5.9.03h-.09c-16.35-22.37-28.14-34.67-40.39-45.41-2.06-1.8-18.66-14.61-41.32-13.95-5.38.16-10.21,1.2-14.46,2.7-10.85,3.87-19.8,11.78-25.53,21.78l-67.08,117.16c-4.3,7.5-5.84,16.38-3.74,24.75,1.19,4.68,3.31,8.91,6.15,12.34l-21.5,21.5c-5.14-5.41-9.12-11.87-11.78-18.91-5.94-15.76-4.26-33.4,3.8-48.21,21.5-39.58,43.01-79.16,64.51-118.74,1.7-3.21,20.88-38.08,61.9-43.11,13.09-1.6,24.73.29,34.41,3.51,14.29,4.75,26.92,13.56,36.75,24.99,21.99,25.5,44.45,51.89,66.32,77.22Z"/>
    <polygon class="cls-1" points="305.71 604.91 290.94 631.15 218.33 600.29 241.3 577.72 305.71 604.91"/>
    <path class="cls-1" d="M360.63,619c-.51.54-1.04,1.07-1.6,1.6-22.4,21.72-52.42,16.41-55.27,15.85l-13.04-5.38,14.55-26.29c16.29,5.18,33.41-2.34,39.77-16.23,5.14-11.27,2.56-25.24-6.64-35.01-2.94-3.27-12.04-12.48-26.9-15.11-21.62-3.8-37.57,9.51-39.79,11.42-33.75,32.53-66.28,65.97-101.25,97.57-14.76,13.32-35.08,19.28-54.02,13.22-4.75-1.53-9.3-3.68-13.49-6.5-3.3-2.21-6.31-4.77-9-7.61l21.5-21.5c2.73,3.3,6.13,5.85,9.97,7.37,5.51,2.17,10.99,1.81,15.59.63,5.77-1.5,10.95-4.68,15.16-8.9l98.21-98.22c3.43-3.24,20.8-19,47.45-20.23h.09c1.91-.09,3.88-.1,5.9-.03.8.03,1.58.07,2.37.13,13.95,1.01,26.82,6.57,37.17,15.31.06.03.1.07.14.11.81.69,1.6,1.39,2.37,2.1.03.03.06.06.09.09,6.51,6.07,11.89,13.46,15.76,21.78.99,2.11,1.96,4.3,2.9,6.54,1.27,3,2.41,5.93,3.47,8.78,7.38,20.16,3.38,43.02-11.45,58.53Z"/>
  </g>
</svg>